<?xml version="1.0" encoding="UTF-8" standalone="no"?>
<!-- Created with Sodipodi ("http://www.sodipodi.com/") -->

<svg
   width="66.145836mm"
   height="185.20834mm"
   style="fill-rule:evenodd;image-rendering:optimizeQuality;shape-rendering:geometricPrecision;text-rendering:geometricPrecision"
   viewBox="0 0 4971.7616 10025.259"
   id="svg2"
   sodipodi:version="0.34"
   inkscape:version="0.92.3 (2405546, 2018-03-11)"
   sodipodi:docname="treble_clef_100.svg"
   version="1.1"><metadata
     id="metadata22"><rdf:RDF><cc:Work
         rdf:about=""><dc:format>image/svg+xml</dc:format><dc:type
           rdf:resource="http://purl.org/dc/dcmitype/StillImage" /><dc:title></dc:title></cc:Work></rdf:RDF></metadata><sodipodi:namedview
     inkscape:window-height="1001"
     inkscape:window-width="1920"
     inkscape:pageshadow="2"
     inkscape:pageopacity="0.0"
     borderopacity="1.0"
     bordercolor="#666666"
     pagecolor="#ffffff"
     id="base"
     inkscape:zoom="2.0103972"
     inkscape:cx="13.202153"
     inkscape:cy="444.91247"
     inkscape:window-x="2391"
     inkscape:window-y="-9"
     inkscape:current-layer="Layer 1"
     showgrid="false"
     fit-margin-top="0"
     fit-margin-left="0"
     fit-margin-right="0"
     fit-margin-bottom="0"
     inkscape:window-maximized="1" /><defs
     id="defs4"></defs><g
     id="Layer 1"
     transform="matrix(3.817349,0,0,3.808092,-4521.649,-24872.099)"><path
       class="fil0 str0"
       d="m 1924.9192,8036.3556 c -55.2488,15.2729 -105.0633,49.4122 -151.255,101.5197 -46.1916,53.0059 -68.8345,111.4021 -68.8345,174.2904 0,39.5299 13.5857,84.4501 39.8516,132.0655 26.2658,48.5139 66.1174,83.5517 117.7433,106.0117 17.2087,3.5937 25.3601,12.5777 25.3601,25.1553 0,4.4921 -6.34,8.9841 -21.7372,12.5777 -82.4204,-20.6633 -150.3492,-64.6851 -202.8809,-130.2686 -52.5317,-66.4819 -79.7032,-141.9479 -81.5147,-228.1947 2.7172,-92.5357 30.7945,-178.7825 84.2319,-257.8422 54.3431,-79.9579 124.0834,-136.5574 209.2209,-169.7984 l -62.4946,-318.9336 c -139.4806,114.9958 -252.6954,234.4836 -340.5501,360.2602 -87.8547,124.8782 -133.1405,260.5373 -136.7634,406.9773 1.8114,65.5835 15.3972,129.3702 40.7573,190.4617 25.3601,61.9899 63.4003,117.691 114.1205,168.9 102.3462,101.5197 235.4867,154.5256 397.6103,159.916 55.2489,-3.5935 114.1205,-13.476 177.5208,-29.6473 z m 65.2117,-8.984 141.292,690.873 c 139.4807,-55.7011 209.221,-176.9857 209.221,-362.057 -8.1515,-61.9899 -26.2658,-117.691 -57.0602,-167.1032 -29.8888,-50.3107 -69.7404,-89.8405 -120.4606,-118.5895 -50.7202,-28.7489 -107.7805,-43.1233 -172.9922,-43.1233 z m -185.6722,-934.3407 c 29.8887,-17.9681 64.306,-49.4123 101.4404,-93.4341 37.1345,-43.1233 73.3631,-94.3325 107.7805,-151.8303 35.323,-58.3963 63.4002,-117.691 84.2318,-177.8841 20.8315,-59.2947 30.7944,-115.8941 30.7944,-168.0017 0,-22.46 -1.8114,-44.9201 -6.34,-64.6851 -3.6229,-32.3425 -13.5858,-57.4978 -30.7945,-74.5676 -17.2086,-16.1712 -38.9459,-25.1553 -66.1174,-25.1553 -54.3431,0 -103.2519,33.241 -146.7263,99.7229 -33.5116,57.498 -61.5889,125.7766 -81.5147,203.0394 -20.8316,78.1613 -32.6058,155.4241 -34.4173,233.5852 4.5286,88.9421 19.0201,161.7128 41.6631,219.2107 z m -57.0603,52.1075 c -40.7573,-145.5416 -63.4003,-293.7783 -67.9289,-444.7103 0.9058,-97.0277 10.8687,-187.7665 29.8887,-272.2164 18.1144,-84.4501 44.3803,-157.2209 78.7975,-220.1092 33.5116,-62.8883 72.4575,-110.5038 115.932,-142.8463 38.9459,-28.749 67.0231,-44.0218 82.4203,-44.0218 11.7744,0 21.7373,4.492 30.7944,12.5776 9.0572,8.0857 20.8316,21.5618 35.323,39.5298 107.7806,151.8304 162.1236,335.1049 162.1236,548.9252 0,101.5197 -13.5857,200.3442 -40.7573,299.1687 -26.2658,97.9261 -65.2117,191.3601 -116.8376,278.5053 -52.5317,88.0437 -114.1205,164.408 -185.6723,229.9916 l 73.3632,353.9713 c 39.8516,-4.492 67.0231,-8.0856 82.4203,-8.0856 68.8347,0 130.4235,14.3745 187.4837,43.1234 57.0603,28.749 105.969,67.3804 145.8207,116.7926 39.8516,48.5138 70.646,104.2149 92.3833,167.1032 20.8315,62.8883 32.6058,128.4719 32.6058,196.7505 0,106.0118 -28.0773,203.0395 -84.2318,290.1848 -56.1546,87.1452 -140.3863,150.9319 -253.6011,192.2585 7.2457,44.0218 19.9258,107.8085 38.9459,189.5633 18.1143,82.6533 31.7001,148.2368 40.7573,196.7506 9.0572,48.5138 12.6801,95.2309 12.6801,141.0495 0,70.974 -17.2087,133.8623 -51.626,189.5634 -35.323,55.701 -82.4204,98.8245 -142.1977,129.3702 -58.8718,30.5458 -124.0835,45.8186 -194.7295,45.8186 -99.629,0 -186.5779,-27.8505 -260.8468,-82.6532 -74.269,-55.7011 -114.1205,-130.2686 -117.7434,-225.4995 2.7171,-42.225 12.6801,-81.7548 30.7944,-119.4878 18.1143,-37.733 42.5687,-68.2788 74.2689,-91.6372 30.7944,-24.2569 67.9288,-36.8346 110.4977,-39.5299 35.3229,0 68.8345,9.8825 100.5346,28.749 30.7945,19.7649 56.1546,45.8186 75.1746,79.0596 18.1144,33.241 28.0774,70.0756 28.0774,109.6054 0,53.0058 -18.1145,97.9261 -54.3432,134.7605 -36.2287,36.8346 -82.4203,55.7012 -137.6692,55.7012 h -20.8315 c 35.3231,53.9042 93.289,81.7547 173.898,81.7547 40.7573,0 82.4203,-8.9839 124.0833,-25.1553 42.5688,-17.0696 77.8918,-39.5298 107.7805,-68.2787 29.8887,-28.7489 49.8146,-59.2947 57.966,-91.6372 15.3972,-36.8346 22.6429,-88.0436 22.6429,-151.8304 0,-43.1234 -4.5285,-86.2468 -12.68,-129.3703 -8.1514,-42.2249 -20.8315,-98.8245 -38.0402,-168.9 -17.2086,-69.1772 -29.8887,-123.0814 -37.1344,-159.916 -54.3431,13.4761 -110.4976,20.6634 -169.3693,20.6634 -98.7233,0 -192.0123,-19.765 -279.867,-60.1932 -87.8547,-40.4281 -164.8407,-96.1293 -231.8639,-168.0016 -66.1174,-71.8723 -117.7434,-152.7288 -154.8778,-244.366 -36.2288,-90.7389 -55.2488,-185.9698 -56.1545,-284.7943 3.6228,-91.6372 20.8314,-179.6808 53.4373,-262.334 32.6059,-83.5516 74.2689,-162.6112 125.8949,-236.2804 51.6259,-73.6692 105.0633,-141.0495 160.3122,-201.2426 56.1544,-59.2947 129.5176,-135.6591 221.9009,-228.1947 z"
       id="path9"
       style="fill:#131516;stroke:#131516;stroke-width:2.70616198"
       inkscape:connector-curvature="0" /></g></svg>
